<svg width="18" height="18" viewBox="0 0 18 18" fill="none" xmlns="http://www.w3.org/2000/svg">
<path d="M13.1666 2.49992H16.5C16.721 2.49992 16.9329 2.58772 17.0892 2.744C17.2455 2.90028 17.3333 3.11224 17.3333 3.33325V16.6666C17.3333 16.8876 17.2455 17.0996 17.0892 17.2558C16.9329 17.4121 16.721 17.4999 16.5 17.4999H1.49996C1.27895 17.4999 1.06698 17.4121 0.910704 17.2558C0.754423 17.0996 0.666626 16.8876 0.666626 16.6666V3.33325C0.666626 3.11224 0.754423 2.90028 0.910704 2.744C1.06698 2.58772 1.27895 2.49992 1.49996 2.49992H4.83329V0.833252H6.49996V2.49992H11.5V0.833252H13.1666V2.49992ZM15.6666 9.16658H2.33329V15.8333H15.6666V9.16658ZM11.5 4.16659H6.49996V5.83325H4.83329V4.16659H2.33329V7.49992H15.6666V4.16659H13.1666V5.83325H11.5V4.16659ZM3.99996 10.8333H5.66663V12.4999H3.99996V10.8333ZM8.16663 10.8333H9.83329V12.4999H8.16663V10.8333ZM12.3333 10.8333H14V12.4999H12.3333V10.8333Z" fill="#4440F7"/>
</svg>
